<?xml version="1.0" standalone="no"?>
<!DOCTYPE svg PUBLIC "-//W3C//DTD SVG 20010904//EN"
 "http://www.w3.org/TR/2001/REC-SVG-20010904/DTD/svg10.dtd">
<svg version="1.0" xmlns="http://www.w3.org/2000/svg"
 width="1200.000000pt" height="1200.000000pt" viewBox="0 0 1200.000000 1200.000000"
 preserveAspectRatio="xMidYMid meet">

<g transform="translate(0.000000,1200.000000) scale(0.100000,-0.100000)"
fill="#000000" stroke="none">
<path d="M5800 9719 c-264 -20 -546 -134 -723 -289 -63 -56 -87 -104 -87 -177
l-1 -58 -104 -67 c-114 -73 -142 -106 -182 -215 -63 -172 -86 -416 -59 -620 9
-67 19 -128 22 -137 5 -12 0 -16 -21 -16 -93 0 -124 -119 -76 -294 39 -143 96
-240 218 -367 70 -75 75 -85 104 -213 53 -239 181 -533 303 -696 129 -173 326
-334 494 -405 224 -94 457 -91 669 9 342 162 606 524 743 1017 59 212 55 204
155 309 132 137 162 206 191 422 18 142 10 189 -36 213 -17 9 -40 13 -53 10
l-24 -6 15 78 c20 105 22 405 3 498 -47 236 -160 444 -336 620 -232 230 -515
350 -915 385 -127 11 -148 11 -300 -1z"/>
<path d="M5015 6284 c-78 -55 -229 -125 -480 -222 -395 -153 -563 -233 -750
-358 -431 -286 -672 -697 -716 -1219 -11 -139 -11 -483 1 -643 13 -191 33
-217 285 -381 448 -292 1072 -485 1888 -584 l27 -4 0 136 c0 118 3 140 20 169
11 18 31 37 44 43 21 10 24 19 29 87 17 244 198 469 440 548 66 22 102 27 187
28 124 1 187 -13 295 -64 196 -94 340 -301 353 -511 4 -69 7 -78 28 -88 13 -6
33 -25 44 -43 17 -29 20 -51 20 -165 0 -128 1 -133 21 -133 36 0 338 48 534
85 615 116 1106 314 1480 595 49 37 98 81 107 98 25 42 58 319 65 547 12 418
-71 755 -259 1042 -111 170 -273 332 -450 451 -68 45 -105 67 -230 135 -72 40
-285 133 -468 204 -367 143 -434 173 -539 240 -29 19 -54 33 -55 31 -67 -106
-296 -340 -424 -433 -96 -70 -227 -144 -309 -176 -80 -30 -234 -37 -323 -15
-79 20 -227 89 -312 147 -141 95 -336 278 -447 422 -29 37 -54 67 -54 66 -1 0
-24 -16 -52 -35z"/>
<path d="M5825 3772 c-44 -15 -106 -44 -138 -66 -149 -99 -246 -284 -247 -468
l0 -58 79 0 78 0 6 86 c6 105 43 189 115 259 248 246 665 86 689 -265 l6 -80
73 0 74 0 0 63 c0 148 -58 285 -165 392 -115 116 -236 165 -401 165 -70 0
-106 -6 -169 -28z"/>
<path d="M5900 3544 c-89 -32 -158 -98 -194 -184 -16 -40 -25 -114 -13 -117 4
-2 147 -3 317 -3 l310 0 0 33 c0 95 -85 215 -182 257 -69 30 -176 36 -238 14z"/>
<path d="M5365 3138 c-3 -7 -4 -204 -3 -438 l3 -425 635 0 635 0 0 435 0 435
-633 3 c-501 2 -634 0 -637 -10z m722 -246 c65 -46 80 -141 33 -205 -22 -29
-22 -30 -5 -96 10 -36 20 -72 23 -78 3 -10 -28 -13 -137 -13 -102 0 -141 3
-141 12 0 6 10 42 21 78 l22 67 -24 32 c-33 44 -33 123 -2 167 47 65 146 82
210 36z"/>
<path d="M5933 2880 c-65 -39 -80 -112 -37 -175 27 -41 27 -49 0 -137 l-15
-48 114 0 c63 0 115 3 115 8 0 4 -8 37 -17 74 l-17 67 23 25 c70 74 7 206 -99
206 -19 0 -49 -9 -67 -20z m144 -32 c14 -15 27 -41 30 -65 4 -34 1 -45 -26
-75 l-30 -35 19 -67 19 -66 -90 0 c-49 0 -89 1 -89 3 0 1 9 31 20 67 l20 64
-28 29 c-21 22 -27 38 -27 73 0 39 5 50 34 76 30 27 39 30 79 25 29 -3 53 -13
69 -29z"/>
</g>
</svg>
